<svg height="512" viewBox="0 0 512 512" width="512" xmlns="http://www.w3.org/2000/svg" xmlns:xlink="http://www.w3.org/1999/xlink"><clipPath id="a"><path d="m0 0h512v512h-512z"/></clipPath><g clip-path="url(#a)"><path d="m0 0h512v512h-512z" fill="#012b28"/><g fill="#85b351"><path d="m305.931 156.78c-1.033-21.712-13.963-35.97-39.388-43.43 3.933 24.432 16.862 38.688 39.388 43.43z" transform="matrix(.957 -.291 .291 .957 -128.788352 106.515146)"/><path d="m330 91.566c1.863-32.4-10.81-53.81-38.631-65.264-1.682 24.284 7.678 52.657 38.631 65.264z" transform="matrix(.957 -.291 .291 .957 -128.379095 127.593155)"/><path d="m294.333 299.82c-16.126-8.022-31.481-6.384-46.714 4.973 15.635 7.979 30.991 6.344 46.714-4.973z" transform="matrix(.957 -.291 .291 .957 -136.871837 64.772081)"/><path d="m272.785 230.267q3.514-5.715 6.76-11.327c-.028-20.565-8.9-34.306-27.076-41.862-2.116 24.678 4.401 41.722 20.316 53.189z" transform="matrix(.957 -.291 .291 .957 -129.884405 91.327145)"/><path d="m345.212 62.9a56.013 56.013 0 0 1 14.579-19.6c.414-18.622-4.677-33.172-15.179-43.3-6.505 10.12-9.4 23.393-8.637 39.51a63.958 63.958 0 0 1 9.237 23.39z" transform="matrix(.957 -.291 .291 .957 -136.556594 136.485422)"/><path d="m360.617 107.592c19.921 2.254 38.943-5.385 57.777-23.169a43.746 43.746 0 0 0 -27.751-3.692q-8.301 17.806-30.026 26.861z" transform="matrix(.957 -.291 .291 .957 -147.495074 120.347732)"/><path d="m228.622 289.468q2.343-2.938 4.613-5.9c-3.705-20.058-16.019-33.373-38.535-41.568 1.7 26.284 12.832 41.849 33.922 47.468z" transform="matrix(.957 -.291 .291 .957 -121.492604 72.962432)"/><path d="m393.178 31.566c3.744-8.24 4.4-16.286 1.962-24.481-12.009 3.8-19.13 9.776-22.269 18.622a79.217 79.217 0 0 1 1.686 14.607 76.6 76.6 0 0 1 18.621-8.748z" transform="matrix(.957 -.291 .291 .957 -145.290203 137.414999)"/><path d="m210.431 337.916q-5.8 5.941-11.818 11.443a50.4 50.4 0 0 1 16 1.572c7.329-7.586 14.322-15.575 20.834-23.8a30.865 30.865 0 0 1 -6.155-10.2c-5.942 7.152-12.226 14.189-18.861 20.985z" transform="matrix(.957 -.291 .291 .957 -127.444127 56.522141)"/><path d="m285.262 316.979a45.5 45.5 0 0 1 -38.183-.542c8.012 17.56 33.861 20.576 56.746 19.436-4.225-8.963-10.332-15.173-18.563-18.894z" transform="matrix(.957 -.291 .291 .957 -138.216149 59.917877)"/><path d="m183.42 394.255a48.909 48.909 0 0 1 -19.273-8.144q-3.224 2.411-6.459 4.716c5.719 23.107 25.442 33.351 60.186 31.244-7.207-13.971-18.525-23.093-34.454-27.816z" transform="matrix(.957 -.291 .291 .957 -123.010136 38.323778)"/><path d="m184.433 368.275q-5.76 4.923-11.623 9.479a43.715 43.715 0 0 0 15.427 6.077l.009-.031c.082.024.16.053.243.077 10.58 2.045 23.435 1.253 38.77-2.369-11.077-12.449-25.141-16.779-42.826-13.233z" transform="matrix(.957 -.291 .291 .957 -125.091353 43.592309)"/><path d="m169.867 357.223c6.507-15.807 5.529-30.036-3.018-43.34-9.915 16.579-11.055 32.489-3.469 48.426q3.255-2.489 6.487-5.086z" transform="matrix(.957 -.291 .291 .957 -118.280954 54.478142)"/><path d="m329.361 241.168a60.817 60.817 0 0 1 -33.07 9.861c-1.34 0-2.691-.06-4.047-.146 13.293 11.717 39.256 13.028 63.256 2.577-7.161-7.96-15.757-11.991-26.139-12.292z" transform="matrix(.957 -.291 .291 .957 -143.183018 79.760774)"/><path d="m365.284 168.028a55.526 55.526 0 0 1 -30.595 9.181c-.769 0-1.542-.022-2.318-.053 12.121 10.071 31.135 11.874 52.082 4.654a36.235 36.235 0 0 0 -19.169-13.782z" transform="matrix(.957 -.291 .291 .957 -147.171662 98.787656)"/><path d="m102.088 397.745c2.21-22.441-3.187-40.458-16.472-54.86-3.791 19.146-1.049 39.975 7.846 59.522q4.27-2.241 8.626-4.662z" transform="matrix(.957 -.291 .291 .957 -103.641377 42.962261)"/><path d="m145.9 366.728q1.985-1.416 3.966-2.868c-5.776-11.6-7.4-23.4-4.888-35.3-2.892-11.409-9.966-19.33-21.587-24.1-5.019 27.187 2.368 47.6 22.509 62.268z" transform="matrix(.957 -.291 .291 .957 -109.490774 54.099062)"/><path d="m107.589 451.2q-9.235 5.051-18.9 9.7c19.881 10.124 42.434 13.023 68.613 8.812-14.377-14.123-30.702-20.184-49.713-18.512z" transform="matrix(.957 -.291 .291 .957 -112.022666 19.194878)"/><path d="m115.6 397.134c-44.454 30.476-88.978 46.333-109.987 52.713a7.9 7.9 0 1 0 4.805 15.053c41.631-13.674 78.954-32.191 111.019-55.033a46.063 46.063 0 0 1 -5.837-12.733z" transform="matrix(.957 -.291 .291 .957 -88.602029 25.176317)"/><path d="m83.076 413.176a112.5 112.5 0 0 1 -8.786-28.483 44.306 44.306 0 0 0 -10.19-7.684c-2.836 16.468-.8 30.384 6.195 42.36q6.23-2.889 12.781-6.193z" transform="matrix(.957 -.291 .291 .957 -101.251838 33.925094)"/><path d="m310.522 129.726c-1.957 4.6-4.076 9.368-6.3 14.183l-19.083 37.526-27.425 54.057a47.309 47.309 0 0 1 14.38-4.061c3.976-11.824 8.657-22.387 11.6-31.79 15.561 1.274 29.639-3.64 42.758-14.963-14.134-5.491-25.79-5.3-36.34.5l19.736-38.816q.839-1.817 1.656-3.623c16.615 1.814 31.234-3.846 44.461-17.224-16.522-3.923-29.68-1.5-40.1 7.318.1-.232.2-.468.3-.7 5.523-12.922 12.478-28.649 16.124-36.9 22.522-8.621 33.487-24.224 33.347-47.465-20.153 7.285-32.27 20.589-36.976 40.539-1.738 3.923-11.181 25.141-18.138 41.419z" transform="matrix(.957 -.291 .291 .957 -122.373614 120.538562)"/><path d="m130.763 473h-55.763l165.542-420h55.758z" fill-rule="evenodd" transform="translate(180 -7)"/></g></g></svg>